<?xml version="1.0" encoding="UTF-8"?>
<svg version="1.1" xmlns="http://www.w3.org/2000/svg" width="72" height="62">
<path d="M0 0 C23.76 0 47.52 0 72 0 C72 20.46 72 40.92 72 62 C48.24 62 24.48 62 0 62 C0 41.54 0 21.08 0 0 Z " fill="#F1F1F4" transform="translate(0,0)"/>
<path d="M0 0 C7.45099886 4.19180041 12.94361132 10.1451116 15.5625 18.4375 C16.08883814 23.1187681 16.18081425 27.73131001 16.13891602 32.43823242 C16.12495823 34.63156383 16.1592994 36.82069357 16.19726562 39.01367188 C16.19821624 40.41927187 16.19636109 41.82487717 16.19140625 43.23046875 C16.19213135 44.4939917 16.19285645 45.75751465 16.19360352 47.05932617 C15.38927732 51.36472717 14.04610848 52.84215685 10.5625 55.4375 C7.9753418 56.00512695 7.9753418 56.00512695 5.26171875 55.92578125 C4.28525391 55.90966797 3.30878906 55.89355469 2.30273438 55.87695312 C0.79163086 55.81411133 0.79163086 55.81411133 -0.75 55.75 C-1.77673828 55.72744141 -2.80347656 55.70488281 -3.86132812 55.68164062 C-6.3882179 55.62287575 -8.91210255 55.54077849 -11.4375 55.4375 C-11.54602923 52.56147545 -11.6250515 49.68959168 -11.6875 46.8125 C-11.73777344 45.60013672 -11.73777344 45.60013672 -11.7890625 44.36328125 C-11.87846752 38.86487243 -11.12737842 35.78320959 -7.4375 31.4375 C-2.27960526 27.4375 -2.27960526 27.4375 1.5625 27.4375 C1.5625 26.7775 1.5625 26.1175 1.5625 25.4375 C0.69625 25.416875 -0.17 25.39625 -1.0625 25.375 C-5.74134496 24.07532085 -7.85651294 21.45707002 -10.4375 17.4375 C-11.3125 14.5 -11.3125 14.5 -11.4375 12.4375 C-12.4275 12.4375 -13.4175 12.4375 -14.4375 12.4375 C-14.5303125 13.7678125 -14.5303125 13.7678125 -14.625 15.125 C-15.62745864 19.21194675 -17.27774514 20.74014829 -20.4375 23.4375 C-22.734037 24.5857685 -24.02063167 24.55311175 -26.5703125 24.53515625 C-27.37597656 24.53193359 -28.18164062 24.52871094 -29.01171875 24.52539062 C-29.85347656 24.51701172 -30.69523437 24.50863281 -31.5625 24.5 C-32.41199219 24.49548828 -33.26148438 24.49097656 -34.13671875 24.48632812 C-36.23700909 24.47452874 -38.3372633 24.45659306 -40.4375 24.4375 C-40.76368697 16.75579696 -39.25679999 12.54603947 -34.4375 6.4375 C-24.74007956 -2.90728697 -12.41809952 -5.77657863 0 0 Z " fill="#6171FE" transform="translate(46.4375,5.5625)"/>
<path d="M0 0 C5.28 0 10.56 0 16 0 C16.495 2.475 16.495 2.475 17 5 C17.99 5 18.98 5 20 5 C20.33 3.35 20.66 1.7 21 0 C24.3 0 27.6 0 31 0 C31 19.47 31 38.94 31 59 C8.89 59 -13.22 59 -36 59 C-36 57.02 -36 55.04 -36 53 C-35.40832031 53.64453125 -34.81664062 54.2890625 -34.20703125 54.953125 C-29.5102597 57.95082085 -25.15322487 57.67306721 -19.6875 57.75 C-18.66076172 57.77964844 -17.63402344 57.80929688 -16.57617188 57.83984375 C-14.05070325 57.91032194 -11.52614585 57.9631266 -9 58 C-9.08719463 54.93616098 -9.19410397 51.87515949 -9.3125 48.8125 C-9.33505859 47.94818359 -9.35761719 47.08386719 -9.38085938 46.19335938 C-9.61967992 39.55257524 -9.61967992 39.55257524 -13 34 C-18.12956728 31.12769595 -22.62893631 30.49850158 -28.4375 30.3125 C-29.53481445 30.26125977 -29.53481445 30.26125977 -30.65429688 30.20898438 C-32.43569562 30.12748247 -34.21781749 30.06204477 -36 30 C-36 29.34 -36 28.68 -36 28 C-34.9378125 27.97421875 -33.875625 27.9484375 -32.78125 27.921875 C-21.57012309 27.95279214 -21.57012309 27.95279214 -12 23 C-10.50731737 20.31727487 -9.80136532 18.00511994 -9 15 C-8.01 15 -7.02 15 -6 15 C-5.74605469 15.54269531 -5.49210937 16.08539062 -5.23046875 16.64453125 C-4.88628906 17.35996094 -4.54210937 18.07539063 -4.1875 18.8125 C-3.85105469 19.52019531 -3.51460937 20.22789063 -3.16796875 20.95703125 C-0.61302476 25.42604699 2.10316764 26.58535954 7 28 C7 28.66 7 29.32 7 30 C6.46890625 30.21914063 5.9378125 30.43828125 5.390625 30.6640625 C4.68421875 30.98117188 3.9778125 31.29828125 3.25 31.625 C2.55390625 31.92664063 1.8578125 32.22828125 1.140625 32.5390625 C-1.94987405 34.64827171 -3.27503344 36.67111717 -5 40 C-5.58582431 43.12650358 -5.69428944 46.19949781 -5.75 49.375 C-5.79447266 50.62216797 -5.79447266 50.62216797 -5.83984375 51.89453125 C-5.91000399 53.92917827 -5.95732895 55.96459091 -6 58 C-2.41548691 57.94810241 1.16662051 57.85302216 4.75 57.75 C6.27367188 57.72873047 6.27367188 57.72873047 7.828125 57.70703125 C8.8078125 57.67480469 9.7875 57.64257812 10.796875 57.609375 C11.69760742 57.58842773 12.59833984 57.56748047 13.52636719 57.54589844 C16.8697499 56.80805756 18.01778018 55.78387988 20 53 C20.63199843 49.68725474 20.63199843 49.68725474 20.56640625 45.9609375 C20.57260483 45.28004059 20.57880341 44.59914368 20.58518982 43.89761353 C20.59228089 42.4569847 20.58912616 41.0162738 20.57641602 39.57568359 C20.562669 37.40172512 20.59647215 35.23218066 20.63476562 33.05859375 C20.68576698 23.93845106 19.71032276 16.12534692 13.28759766 9.13671875 C9.37628287 5.44143936 4.86232775 3.21790388 0 1 C0 0.67 0 0.34 0 0 Z " fill="#FAFBFE" transform="translate(41,3)"/>
<path d="M0 0 C17.43645588 -0.76178691 17.43645588 -0.76178691 24 4 C27.81103181 8.58735311 27.35211015 13.15244345 27.1875 18.8125 C27.16719727 20.13797852 27.16719727 20.13797852 27.14648438 21.49023438 C27.11129217 23.66042023 27.05748985 25.83029033 27 28 C23.43812343 28.17479953 19.87735227 28.28101143 16.3125 28.375 C14.80139648 28.45041016 14.80139648 28.45041016 13.25976562 28.52734375 C8.39234835 28.62372825 5.83352388 28.6047134 1.8125 25.6875 C-1.14308574 21.14839693 -0.5306845 15.82786123 -0.3125 10.625 C-0.28994141 9.60277344 -0.26738281 8.58054687 -0.24414062 7.52734375 C-0.18548082 5.01670419 -0.10345928 2.50912621 0 0 Z " fill="#6271FE" transform="translate(5,33)"/>
<path d="M0 0 C-3 2 -3 2 -5.26953125 3.19140625 C-11.93724218 6.78643933 -15.2284201 10.53779145 -19 17 C-19.98289705 18.34599078 -20.97820992 19.68329092 -22 21 C-22.58913463 7.51536292 -22.58913463 7.51536292 -19 3 C-13.00390665 -0.82729363 -6.93465542 -0.30744778 0 0 Z " fill="#FBFBFE" transform="translate(27,3)"/>
<path d="M0 0 C19.14 0 38.28 0 58 0 C58 0.33 58 0.66 58 1 C54.7 1 51.4 1 48 1 C48 2.65 48 4.3 48 6 C46.0625 6.5625 46.0625 6.5625 44 7 C43 6 43 6 42.9375 3.4375 C42.958125 2.633125 42.97875 1.82875 43 1 C42.07445312 1.08378906 41.14890625 1.16757812 40.1953125 1.25390625 C26.76195115 2.32031687 13.44216529 1.68365758 0 1 C0 0.67 0 0.34 0 0 Z " fill="#EBEBEC" transform="translate(14,2)"/>
<path d="M0 0 C1.98 0.495 1.98 0.495 4 1 C3.67 2.65 3.34 4.3 3 6 C1.68 5.67 0.36 5.34 -1 5 C-0.67 3.35 -0.34 1.7 0 0 Z " fill="#6C7AFE" transform="translate(58,3)"/>
<path d="M0 0 C1.7074998 1.28062485 3.37373596 2.61767557 5 4 C5 4.66 5 5.32 5 6 C3.35 6 1.7 6 0 6 C0 4.02 0 2.04 0 0 Z " fill="#F6F6FD" transform="translate(5,56)"/>
</svg>
